<svg width="39" height="52" viewBox="0 0 39 52" fill="none" xmlns="http://www.w3.org/2000/svg">
<g filter="url(#filter0_d_1378_20614)">
<path d="M24.6452 18.1522C24.6452 20.9256 22.3416 23.1739 19.5 23.1739C16.6584 23.1739 14.3548 20.9256 14.3548 18.1522C14.3548 15.3787 16.6584 13.1304 19.5 13.1304C22.3416 13.1304 24.6452 15.3787 24.6452 18.1522Z" fill="white"/>
<path d="M19.5 4C11.4908 4 5 10.3291 5 18.1386C5 26.1089 9.05145 27.8069 13.5294 33.1089C18.8855 39.4507 18.0968 46 19.5 46C20.9032 46 20.1145 39.4507 25.4706 33.109C29.9486 27.8069 34 26.1089 34 18.1387C34 10.3291 27.5092 4 19.5 4ZM19.5 23.0248C16.7324 23.0248 14.489 20.8372 14.489 18.1387C14.489 15.4402 16.7325 13.2526 19.5 13.2526C22.2675 13.2526 24.511 15.4402 24.511 18.1387C24.511 20.8372 22.2675 23.0248 19.5 23.0248Z" fill="#6339F5"/>
<path d="M19.5 3.5C11.2267 3.5 4.5 10.0412 4.5 18.1386C4.5 22.2293 5.5464 24.7528 7.18639 26.9256C7.9949 27.9968 8.94315 28.9768 9.95059 30.0039C10.0164 30.071 10.0824 30.1383 10.1487 30.2059C11.1034 31.1784 12.114 32.2079 13.1474 33.4315C15.76 36.5249 16.8764 39.6699 17.5139 42.0614C17.6726 42.6569 17.8015 43.2048 17.9175 43.6982L17.9198 43.7078C18.0353 44.199 18.1402 44.6454 18.2481 45.017C18.3537 45.3805 18.475 45.7206 18.6398 45.9767C18.8107 46.2424 19.0863 46.5 19.5 46.5C19.9137 46.5 20.1893 46.2424 20.3602 45.9767C20.525 45.7206 20.6463 45.3805 20.7519 45.017C20.8598 44.6454 20.9647 44.199 21.0803 43.7078L21.0825 43.6981C21.1985 43.2048 21.3274 42.6569 21.4861 42.0614C22.1236 39.6699 23.24 36.5249 25.8526 33.4316C26.886 32.2079 27.8966 31.1784 28.8513 30.2058C28.9176 30.1383 28.9837 30.071 29.0494 30.004C30.0569 28.9768 31.0051 27.9968 31.8136 26.9256C33.4536 24.7528 34.5 22.2293 34.5 18.1387C34.5 10.0412 27.7733 3.5 19.5 3.5Z" stroke="white"/>
</g>
<defs>
<filter id="filter0_d_1378_20614" x="0" y="0" width="39" height="52" filterUnits="userSpaceOnUse" color-interpolation-filters="sRGB">
<feFlood flood-opacity="0" result="BackgroundImageFix"/>
<feColorMatrix in="SourceAlpha" type="matrix" values="0 0 0 0 0 0 0 0 0 0 0 0 0 0 0 0 0 0 127 0" result="hardAlpha"/>
<feOffset dy="1"/>
<feGaussianBlur stdDeviation="2"/>
<feComposite in2="hardAlpha" operator="out"/>
<feColorMatrix type="matrix" values="0 0 0 0 0 0 0 0 0 0 0 0 0 0 0 0 0 0 0.12 0"/>
<feBlend mode="normal" in2="BackgroundImageFix" result="effect1_dropShadow_1378_20614"/>
<feBlend mode="normal" in="SourceGraphic" in2="effect1_dropShadow_1378_20614" result="shape"/>
</filter>
</defs>
</svg>
